# xmcd CD database file
#
# Track frame offsets:
#	150
#	25482
#	43102
#	56215
#	77870
#	93825
#	112080
#	129787
#	145468
#	174600
#	194955
#	210975
#	224100
#	237480
#	243000
#	258000
#
# Disc length: 3532 seconds
#
# Revision: 3
# Processed by: cddbd v1.5PL3 Copyright (c) Steve Scherf et al.
# Submitted via: CDex 1.51
#
DISCID=f20dca10
DTITLE=Heli Deinboek - Heli Deinboek/Wiener Sondermüll
DYEAR=1900
DGENRE=
TTITLE0=Relativ Negativ
TTITLE1=Tanz an Blues mit mir
TTITLE2=Wer tötete den Osterhasen
TTITLE3=Margareten Transfer
TTITLE4=Second Hand Man
TTITLE5=And're Frau'n
TTITLE6=Sympathie
TTITLE7=Fischblut X 2000
TTITLE8=Red ned im Schlaf
TTITLE9=Der Killer vom Billa
TTITLE10=Petzi
TTITLE11=I had a breastless mother
TTITLE12=Kleine Geschenke erhalten die Freundschaft
TTITLE13=Du bist schön
TTITLE14=Pam Pam Blues
TTITLE15=Die Meier Hörfunk Spots
EXTD=
EXTT0=
EXTT1=
EXTT2=
EXTT3=
EXTT4=
EXTT5=
EXTT6=
EXTT7=
EXTT8=
EXTT9=
EXTT10=
EXTT11=
EXTT12=
EXTT13=
EXTT14=
EXTT15=
PLAYORDER=
